<?xml version="1.0" encoding="UTF-8"?>
<svg id="Vrstva_1" data-name="Vrstva 1" xmlns="http://www.w3.org/2000/svg" viewBox="0 0 512 512">
  <defs>
    <style>
      .cls-1 {
        fill: #4d4d4d;
      }
    </style>
  </defs>
  <path class="cls-1" d="M510.68,194.98c-4.57-14.07-19.69-21.78-33.77-17.2l-43.8,14.23,16.87-33.11c6.72-13.19,1.48-29.32-11.71-36.04-13.19-6.72-29.32-1.48-36.04,11.71l-41.21,80.87-73.7,23.95c-.85-.8-1.73-1.58-2.7-2.28-.59-.43-1.21-.81-1.82-1.19v-81.15l64.18-64.18c10.46-10.47,10.46-27.43,0-37.9-10.47-10.47-27.43-10.46-37.9,0l-26.28,26.28v-46.06c0-14.8-12-26.8-26.8-26.8s-26.8,12-26.8,26.8v46.06l-26.28-26.28c-10.46-10.46-27.43-10.47-37.9,0-10.47,10.46-10.47,27.43,0,37.9l64.18,64.18v81.15c-.62.38-1.23.76-1.82,1.19-.97.71-1.86,1.48-2.7,2.28l-73.7-23.95-41.21-80.87c-6.72-13.19-22.86-18.43-36.04-11.71-13.19,6.72-18.43,22.86-11.71,36.04l16.87,33.11-43.8-14.23c-14.07-4.57-29.19,3.13-33.77,17.21-4.57,14.07,3.13,29.19,17.21,33.77l43.8,14.23-33.11,16.87c-13.19,6.72-18.43,22.86-11.71,36.04,4.73,9.29,14.14,14.64,23.9,14.64,4.09,0,8.25-.94,12.14-2.93l80.87-41.2,77.5,25.18-45.18,62.18-89.64,14.2c-14.62,2.32-24.59,16.04-22.28,30.66,2.09,13.2,13.48,22.61,26.43,22.61,1.39,0,2.81-.11,4.23-.33l36.71-5.81-27.07,37.26c-8.7,11.97-6.04,28.73,5.93,37.43,4.76,3.46,10.27,5.12,15.73,5.12,8.29,0,16.46-3.83,21.7-11.05l27.07-37.26,5.81,36.71c2.09,13.2,13.48,22.61,26.43,22.61,1.39,0,2.81-.11,4.22-.33,14.62-2.32,24.59-16.04,22.28-30.66l-14.2-89.64,45.91-63.19,45.91,63.19-14.2,89.64c-2.32,14.62,7.66,28.34,22.28,30.66,1.42.23,2.83.33,4.22.33,12.95,0,24.34-9.41,26.43-22.61l5.81-36.71,27.07,37.26c5.24,7.22,13.41,11.05,21.7,11.05,5.46,0,10.97-1.66,15.73-5.12,11.97-8.7,14.63-25.46,5.93-37.43l-27.07-37.26,36.71,5.81c1.42.22,2.83.33,4.23.33,12.95,0,24.34-9.41,26.43-22.61,2.32-14.62-7.66-28.34-22.28-30.66l-89.64-14.2-45.18-62.18,77.5-25.18,80.87,41.2c3.9,1.99,8.05,2.93,12.14,2.93,9.76,0,19.17-5.35,23.9-14.64,6.72-13.19,1.48-29.32-11.71-36.04l-33.11-16.87,43.8-14.23c11.33-3.68,18.53-14.19,18.52-25.49,0-2.74-.43-5.53-1.32-8.27Z"/>
</svg>