<?xml version="1.0" encoding="UTF-8"?>
<svg id="Vrstva_1" data-name="Vrstva 1" xmlns="http://www.w3.org/2000/svg" viewBox="0 0 512 512">
  <defs>
    <style>
      .cls-1 {
        fill: #4d4d4d;
      }
    </style>
  </defs>
  <path class="cls-1" d="M365.1,216.17c19.28,0,38.26,6.18,55.03,11.64,16.39,5.33,29.89,9.42,41.95,9.42s21.3-3.89,29.31-11.9c25.12-25.12,27.32-59.94,6.37-100.68-15.52-30.18-39.26-54.66-43.86-59.26-11.17-11.17-41.25-37.15-79.23-37.15-24.55,0-47.69,10.7-68.8,31.81-40.87,40.88-51.36,106.68-54.04,135.68-5.79.4-11.52,1.62-17.02,3.66-29.47-38.25-17.57-74.82-6.95-107.46,8.68-26.68,16.89-51.88-2.49-71.26C211.59,6.88,194.92-.1,175.82-.1c-11.22,0-23.34,2.47-36.03,7.34-34.35,13.19-63.44,40-74.36,50.91-9.47,9.47-26.45,29.23-33.73,55.09-6.46,22.98-6.78,57.75,28.39,92.93,40.88,40.88,106.61,51.37,135.62,54.05.4,5.79,1.63,11.53,3.69,17.03-16.19,12.47-33.46,18.57-52.4,18.57s-38.26-6.18-55.03-11.63c-16.38-5.34-29.87-9.42-41.94-9.42s-21.3,3.89-29.32,11.91c-15.26,15.26-29.98,42.5-13.43,85.59,13.19,34.35,40,63.44,50.91,74.35,11.17,11.17,41.25,37.15,79.23,37.15h0c24.54,0,47.69-10.7,68.8-31.81,40.9-40.91,51.37-106.69,54.04-135.68,5.78-.41,11.5-1.64,16.99-3.69,29.51,38.26,17.6,74.84,6.97,107.48-8.68,26.68-16.88,51.88,2.49,71.26,13.79,13.78,30.46,20.78,49.56,20.78h0c11.22,0,23.34-2.47,36.02-7.35,34.35-13.19,63.44-40,74.36-50.92,20.17-20.17,33.07-43.97,36.34-67.02,4.12-29.04-6.31-56.29-31.01-80.99-40.93-40.93-106.77-51.4-135.73-54.06-.4-5.77-1.62-11.48-3.66-16.96,16.22-12.51,33.51-18.63,52.48-18.63Z"/>
</svg>