<?xml version="1.0" encoding="UTF-8"?>
<svg id="Vrstva_1" data-name="Vrstva 1" xmlns="http://www.w3.org/2000/svg" viewBox="0 0 512 512">
  <defs>
    <style>
      .cls-1 {
        fill: #4d4d4d;
      }

      .cls-2 {
        fill: #8c8c8c;
      }
    </style>
  </defs>
  <polygon class="cls-1" points="0 512 256 277.11 256 512 0 512"/>
  <polygon class="cls-2" points="512 512 256 277.11 256 512 512 512"/>
  <polygon class="cls-2" points="512 426.57 512 383.89 453.28 383.89 499.79 426.57 512 426.57"/>
  <polygon class="cls-2" points="512 213.03 267.06 213.03 313.57 255.7 512 255.7 512 213.03"/>
  <polygon class="cls-2" points="512 341.14 512 298.46 360.17 298.46 406.68 341.14 512 341.14"/>
  <rect class="cls-1" x="0" y="0" width="256" height="84.84"/>
  <polygon class="cls-1" points="58.72 383.89 0 383.89 0 426.57 12.21 426.57 58.72 383.89"/>
  <polygon class="cls-1" points="151.83 298.46 0 298.46 0 341.14 105.32 341.14 151.83 298.46"/>
  <rect class="cls-1" x="0" y="127.6" width="256" height="42.68"/>
  <rect class="cls-2" x="256" y="0" width="256" height="84.84"/>
  <rect class="cls-2" x="256" y="127.6" width="256" height="42.68"/>
  <polygon class="cls-1" points="244.94 213.03 0 213.03 0 255.7 198.43 255.7 244.94 213.03"/>
</svg>