<svg class="hero__logo" version="1.2" xmlns="http://www.w3.org/2000/svg" viewBox="0 0 1500 280">
	<g id="Folder 1">
		<g style="fill: #b29a36">
			<path class="s0" d="m669.3 38q6.1 0 9.8 1.3 3.8 1.3 5.5 4.6 1.7 3.2 1.7 9 0 4.1-1 6.8-0.9 2.8-3 4.3-2 1.6-5.5 2v0.4q1.2 0.3 2.5 1.2 1.3 0.9 2.4 2.5 1.1 1.4 1.6 3.8l4.8 16.1h-7.8l-4.5-16q-0.9-2.8-2.4-4-1.6-1.2-4.1-1.2-4.7 0-8 0-3.4-0.1-5.7-0.2-2.2 0-3.6 0l0.2-6h16.9q3.7-0.1 5.8-0.8 2-0.8 2.9-2.8 1-2 1-5.7 0-3.6-1-5.6-0.9-2-2.9-2.7-2.1-0.8-5.8-0.8-6.2 0-10.7 0-4.6 0.1-6.1 0.1l-1.1-5.6q2.9-0.3 5.4-0.5 2.5-0.1 5.5-0.1 3-0.1 7.2-0.1zm-18.1 0.7h7.4v51.3h-7.4zm67.8-1q5.6 0 9.5 1.4 4 1.3 6.4 4.4 2.4 3 3.4 8.1 1.2 5.2 1.2 12.8 0 7.5-1.2 12.7-1 5.1-3.4 8.2-2.4 3-6.4 4.4-3.9 1.3-9.5 1.3-5.7 0-9.7-1.3-3.9-1.4-6.4-4.4-2.4-3.1-3.5-8.2-1.1-5.2-1.1-12.7 0-7.6 1.1-12.8 1.1-5.1 3.5-8.1 2.5-3.1 6.4-4.4 4-1.4 9.7-1.4zm0 6.5q-4.9 0-7.7 1.9-2.8 1.8-4 6.2-1.1 4.3-1.1 12.1 0 7.6 1.1 12 1.2 4.4 4 6.3 2.8 1.8 7.7 1.8 4.8 0 7.5-1.8 2.9-1.9 4-6.3 1.2-4.4 1.2-12 0-7.8-1.2-12.1-1.1-4.4-4-6.2-2.7-1.9-7.5-1.9zm51.8-6.2q5.6 0 9.5 1.4 3.9 1.3 6.3 4.4 2.4 2.9 3.4 8.1 1.2 5 1.2 12.5 0 7.4-1.2 12.5-1 5.1-3.4 8.2-2.4 2.9-6.3 4.3-3.9 1.3-9.5 1.3-5.3 0-9.9-0.1-4.6-0.3-8.7-0.6l3.2-5.9q3.1 0.1 6.9 0.3 3.8 0.1 8.5 0.1 4.8 0 7.5-1.9 2.8-1.9 3.9-6.2 1.2-4.4 1.2-12 0-7.7-1.2-12-1.1-4.4-3.9-6.3-2.7-1.9-7.5-1.9-4.6 0-8.2 0.1-3.7 0.1-7.2 0.1l-3.2-5.7q4.1-0.3 8.7-0.4 4.6-0.3 9.9-0.3zm-18.6 0.7h7.5v51.3h-7.5zm52 0h7.5v51.4h-7.5zm54.9 0h7.2v48.4q0 2.9-2.7 2.9h-6.4q-1.3 0-2-0.6-0.7-0.6-1.2-1.7l-16.8-34.7q-0.6-1.5-1.5-3.3-0.9-2-1.4-3.6h-1.1q0.2 1.7 0.2 3.5 0.1 1.7 0.1 3.5v36.9h-7.3v-48.4q0-2.9 2.9-2.9h6.1q1.3 0 2 0.6 0.8 0.6 1.3 1.7l16.2 33.8q0.8 1.5 1.7 3.5 1 2 1.8 4h1.2q-0.1-2-0.2-4-0.1-2-0.1-3.9zm55 0h7.2v48.4q0 2.9-2.7 2.9h-6.4q-1.3 0-2-0.6-0.7-0.6-1.2-1.7l-16.8-34.7q-0.6-1.4-1.5-3.3-0.9-1.9-1.4-3.6h-1.1q0.2 1.7 0.2 3.5 0.1 1.7 0.1 3.5v36.9h-7.3v-48.4q0-2.9 2.9-2.9h6.1q1.3 0 2 0.6 0.8 0.6 1.3 1.7l16.2 33.8q0.8 1.5 1.7 3.5 1 2 1.8 4h1.2q-0.1-2-0.2-4-0.1-2-0.1-3.9zm31.8-0.1q3.7 0 7.6 0 3.8 0 7.5 0.2 3.8 0 7.2 0.3l-0.2 5.7h-20.5q-2.2 0-3.2 1.1-1.1 1.1-1.1 3.6v29.7q0 2.5 1.1 3.7 1 1.1 3.2 1.1h20.5l0.2 5.7q-3.4 0.2-7.2 0.3-3.7 0-7.5 0.1-3.9 0-7.6 0-4.6 0-7.4-2.4-2.6-2.6-2.7-6.7v-33.2q0.1-4.3 2.7-6.7 2.8-2.5 7.4-2.5zm-8.8 27.3v-5.8h28v5.8zm10.4-34.6l13.2-11 3.9 5.5-14.7 8.7zm85.2 6.7q5.7 0 9.5 1.4 3.9 1.3 6.3 4.4 2.4 2.9 3.4 8.1 1.2 5 1.2 12.5 0 7.4-1.2 12.5-1 5.1-3.4 8.1-2.4 3-6.3 4.4-3.8 1.3-9.5 1.3-5.3 0-9.9-0.1-4.6-0.3-8.7-0.6l3.2-5.9q3.1 0.1 6.9 0.3 3.8 0.1 8.5 0.1 4.8 0 7.5-1.9 2.8-1.9 3.9-6.2 1.2-4.4 1.2-12 0-7.7-1.2-12-1.1-4.4-3.9-6.3-2.7-1.9-7.5-1.9-4.6 0-8.2 0.1-3.7 0-7.2 0.1l-3.2-5.7q4.1-0.3 8.7-0.5 4.6-0.2 9.9-0.2zm-18.6 0.7h7.5v51.3h-7.5zm69.8-0.9q5.6 0 9.5 1.3 4 1.3 6.4 4.4 2.4 3 3.4 8.2 1.2 5.1 1.2 12.7 0 7.5-1.2 12.7-1 5.2-3.4 8.2-2.4 3.1-6.4 4.4-3.9 1.3-9.5 1.3-5.7 0-9.7-1.3-3.9-1.3-6.4-4.4-2.4-3-3.5-8.2-1.1-5.2-1.1-12.7 0-7.6 1.1-12.7 1.1-5.2 3.5-8.2 2.5-3.1 6.4-4.4 4-1.3 9.7-1.3zm0 6.4q-4.9 0-7.7 1.9-2.8 1.9-4 6.2-1.1 4.4-1.1 12.1 0 7.7 1.1 12.1 1.2 4.3 4 6.2 2.8 1.9 7.7 1.9 4.8 0 7.5-1.9 2.9-1.9 4-6.2 1.2-4.4 1.2-12.1 0-7.7-1.2-12.1-1.1-4.3-4-6.2-2.7-1.9-7.5-1.9zm75.4-5.5h8q2.9 0 3 3.1l2.1 48.3h-7.3l-1.9-45.3h-1.5l-10.8 36.8q-0.6 2.4-3.1 2.4h-6.1q-2.6 0-3.3-2.4l-10.8-36.8h-1.5l-1.7 45.3h-7.3l2-48.3q0.2-3.1 3-3.1h8q2.4 0 3.1 2.5l9 30.3q0.6 1.8 1 3.5 0.3 1.7 0.9 3.5h1.2q0.5-1.8 0.9-3.5 0.5-1.7 1-3.6l9-30.2q0.6-2.5 3.1-2.5zm53.9 0h7.8l-17.3 34.2h-6.8l-17.3-34.2h7.8l10.4 21.2q0.7 1.4 1.2 2.9 0.5 1.5 1.1 3h0.5q0.5-1.5 1-3 0.6-1.5 1.2-2.9zm-16.6 29.1h7.4v22.3h-7.4z"/>
		</g>
		<g style="fill: #424241">
			<path class="s1" d="m698.3 155.4q17.9 0 28 3.6 10.2 3.5 14.5 12.1 4.3 8.6 4.3 24.1 0 15.5-4.1 24.1-4 8.5-13.3 11.9-9.3 3.4-24.9 3.4-8.3 0-16.5-0.6-8.1-0.9-15.2-2.1-7-1.4-12-2.8-5-1.5-6.9-2.5l0.5-15.2q10.7 0 22.2 0 11.5 0 22.7 0 6-0.2 9.3-1.4 3.3-1.4 4.5-4.8 1.4-3.6 1.4-10 0-6.6-1.4-10.2-1.2-3.6-4.5-4.8-3.3-1.4-9.3-1.4-16.7 0-28.5 0.2-11.9 0.2-16.2 0.7l-2.6-22.6q7.6-0.8 14.3-1.2 6.7-0.3 14.6-0.3 7.9-0.2 19.1-0.2zm-48 1.7h32.4v118.9h-32.4zm109.2 0h32v118.9h-32zm79.1 0h32.4v118.9h-32.4zm-34.4 0h101v24.6h-101zm180.7 0h34.5l-28.8 47.2q-2.1 3.5-4.7 6-2.6 2.5-5 3.8v0.6q2.4 1.3 5.7 4.4 3.3 3 5.2 6.6l29.5 50.3h-35.7l-33.9-62.2zm-66.4 0h32.2v31.7q0 6.2-1.2 12.7-1.1 6.4-3.3 12.1 1.7 5.3 3.1 11.5 1.4 6.1 1.4 11.1v39.8h-32.2zm22.7 46.3h20.6v21.6h-20.6zm134.8-48.8q14.8 0 25 2.9 10.1 3 16.5 10 6.3 6.9 9.1 18.8 2.7 11.9 2.7 30.2 0 18-2.7 30.1-2.8 11.9-9.1 19-6.4 6.8-16.5 9.8-10.2 2.9-25 2.9-14.6 0-24.9-2.9-10.2-3-16.5-9.8-6.4-7.1-9.1-19-2.8-12.1-2.8-30.1 0-18.3 2.8-30.2 2.7-11.9 9.1-18.8 6.3-7 16.5-10 10.3-2.9 24.9-2.9zm0 24.6q-7.5 0-11.8 3.1-4.2 3.1-5.9 11.2-1.7 8.1-1.7 23 0 14.8 1.7 22.9 1.7 8.1 5.9 11.2 4.3 3.1 11.8 3.1 7.6 0 11.7-3.1 4.3-3.1 5.9-11.2 1.7-8.1 1.7-22.9 0-14.9-1.7-23-1.6-8.1-5.9-11.2-4.1-3.1-11.7-3.1zm138.3-22.2h33.2l-30.5 110.1q-1 4-4.1 6.4-2.9 2.4-7 2.4h-28.8q-4.3 0-7.4-2.4-2.9-2.4-3.7-6.4l-30.6-110.1h33.1l18.3 81.2q0.7 3.2 1.4 6.7 0.6 3.4 1.2 6.7h4.1q0.5-3.3 1.2-6.7 0.7-3.5 1.4-6.7zm44.2 0h32v118.8h-32zm101.3-2q8.9 0 15.1 0.5 6.4 0.5 11.6 1.4 5.3 0.8 10.8 2.4l-2.4 23.8q-5.9-0.4-10.9-0.4-4.9-0.2-10.6-0.2-5.7-0.1-13.6-0.1-7.1 0-11.2 2.9-3.9 2.9-5.5 10.3-1.5 7.4-1.5 20.9 0 13.4 1.5 20.8 1.6 7.4 5.5 10.4 4.1 2.9 11.2 2.9 12.6 0 20.8-0.3 8.4-0.4 16.9-1.3l2.4 23.7q-8.6 2.9-17.7 4.1-9 1.2-22.4 1.2-19.1 0-30.6-5.9-11.4-6-16.5-19.4-5-13.5-5-36.2 0-22.8 5-36.2 5.1-13.4 16.5-19.3 11.5-6 30.6-6zm79.3 1.5q10 0 20.3 0 10.5 0 20.5 0.5 10.1 0.4 18.5 1.4l-1.5 23.1h-44.4q-3.8 0-5.8 2.1-2.1 1.9-2.1 5.3v55.2q0 3.4 2.1 5.5 2 1.9 5.8 1.9h44.4l1.5 23q-8.4 0.9-18.5 1.4-10 0.4-20.5 0.5-10.3 0-20.3 0-11.9 0-19.3-7-7.4-7.1-7.4-18.5v-68.9q0-11.5 7.4-18.4 7.4-7.1 19.3-7.1zm-23.6 69.1v-21.9h75.2v21.9z"/>
		</g>
		<g style="fill: none;stroke: #b29a36;stroke-width: 22.1">
			<path fill-rule="evenodd" class="s2" d="m336.7 264.8h56.9v-199.1h-99"/>
			<path fill-rule="evenodd" class="s2" d="m228.4 66.1h-33.2v198.7l66.3-0.1"/>
		</g>
		<g style="fill: none;stroke: #b29a36;stroke-width: 19.7">
			<path fill-rule="evenodd" class="s3" d="m495.5 275.8v-168.3h-74.2"/>
			<path fill-rule="evenodd" class="s3" d="m365.8 107.5h-29v168.3"/>
		</g>
		<g style="fill: none;stroke: #b29a36;stroke-width: 24.6">
			<path fill-rule="evenodd" class="s4" d="m261.5 275.8v-262.1h-247.9v262.1"/>
		</g>
	</g>
</svg>