<svg version="1.2" xmlns="http://www.w3.org/2000/svg" viewBox="0 0 4000 2536" width="4000" height="2536">
	<title>280 LV SHAPES SUBTRACTED</title>
	<style>
		.s0 { opacity: .2;fill: #00ff00 } 
		.s1 { opacity: .2;fill: #ff00ff } 
		.s2 { opacity: .37;fill: #00ffff } 
		.s3 { opacity: .37;fill: #ffff00 } 
	</style>
	<path id="rd-5" fill-rule="evenodd" class="s0" d="m1172.7 1522.5l-2.8-109.8-20.8-4.1-0.7-59.7 18.9-1.5-2.8-77.3-20.7-3.8-0.5-19.8 19.8-2.8-0.7-39.4 464.8-46.5 241 27.9 0.8 83.3-206.7 27.7 8.6 313.5-524.8 111.5-346.7-124.6z"/>
	<path id="rd-6" fill-rule="evenodd" class="s1" d="m992.4 1468.3l-3.6-97.4-22.7-4.3-1.7-55.9 21.9-2.1-2.6-71.3-23.4-3.7-0.8-18.5 22.5-3.1-0.9-35.4 461-38.6 185.1 19.8-464.8 46.5 0.7 39.4-19.8 2.8 0.5 19.8 20.7 3.8 2.8 77.3-18.9 1.5 0.7 59.7 20.8 4.1 2.8 109.8-373.3 74.6-175-63z"/>
	<path id="rd-7" fill-rule="evenodd" class="s0" d="m835.3 1426l-2.3-90.8-26-6.2-1.5-52.1 24.1-1.9-2.7-65.8-25.7-3.9-1.9-18.1 25.8-2.2-1.2-34.6 447.1-33.5 171.1 21.1-461 38.6 0.9 35.4-22.5 3.1 0.8 18.5 23.4 3.7 2.6 71.3-21.9 2.1 1.7 55.9 22.7 4.3 3.6 97.4-368 65.8-144.7-52z"/>
	<path id="rd-8" fill-rule="evenodd" class="s1" d="m699 1383.4l-3.7-80.2-26.8-6.4-1.2-48.3 24.1-2.3-2.7-61.6-26.4-4.3-2.5-15.8 27.4-3.2-1.6-29.6 439.5-31.6 145.9 16.8-447.1 33.5 1.2 34.6-25.8 2.2 1.9 18.1 25.7 3.9 2.7 65.8-24.1 1.9 1.5 52.1 26 6.2 2.3 90.8-355.6 56.1-174.7-62.8z"/>
	<path id="rd-9" fill-rule="evenodd" class="s0" d="m580.3 1334.1l-3.6-59.9-30.9-6.2-1.5-46 29-1.9-3.3-56.5-30.2-4.9-2.8-15.6 32-3.2-1.8-28.3 408.4-26.4 149.5 14.9-439.5 31.6 1.6 29.6-27.4 3.2 2.5 15.8 26.4 4.3 2.7 61.6-24.1 2.3 1.2 48.3 26.8 6.4 3.7 80.2-394 35.9-120.4-43.3z"/>
	<path id="rd-1" fill-rule="evenodd" class="s2" d="m2774.2 1980.7l13.5-505.5 435.2-112.5 577 68.8-20.8 275.6 361.1 58.2-61.2 825.7-631.4-41.9-1040.3-374z"/>
	<path id="rd-2" fill-rule="evenodd" class="s3" d="m2323.3 1856l3.7-450 466.9-94.5 429 51.2-435.2 112.5-13.5 505.5-366.9 194.4-472.9-170z"/>
	<path id="rd-3" fill-rule="evenodd" class="s2" d="m1959.7 1759.3l-1.3-414.1 466.9-77.7 368.1 43.9-466.4 94.6-3.7 450-388.9 149.1-369.2-132.8z"/>
	<path id="rd-4" fill-rule="evenodd" class="s3" d="m1670.9 1610.2l-8.6-313.5 479.5-63.1 283.5 33.9-466.9 77.7 1.3 414.1-394.5 113-419.1-150.6z"/>
</svg>