<svg class="layout-viewer-map" id="lv-map" version="1.2" xmlns="http://www.w3.org/2000/svg" viewBox="0 0 3840 1868" width="3840" height="1868">
	<a href="./temp/F3.103.pdf?id=1">
		<path id="rd-path-1" fill-rule="evenodd" d="m2663.3 1394.8l12.9-485.3 417.8-108.1 553.9 66.1-20 264.6 346.6 55.9-58.7 792.8-606.1-40.3-998.7-359.1z"/>
	</a>
	<a href="./temp/F3.103.pdf?id=2">
		<path id="rd-path-2" fill-rule="evenodd" d="m2230.3 1275l3.6-432 448.2-90.8 411.9 49.2-417.8 108.1-12.9 485.3-352.3 186.6-454-163.2z"/>
	</a>
	<a href="./temp/F3.103.pdf?id=3">
		<path id="rd-path-3" fill-rule="evenodd" d="m1881.3 1182.3l-1.2-397.7 448.2-74.6 353.4 42.2-447.8 90.8-3.6 432-373.3 143.2-354.4-127.4z"/>
	</a>
	<a href="./temp/F3.103.pdf?id=4">
		<path id="rd-path-4" fill-rule="evenodd" d="m1604 1039.1l-8.2-301 460.3-60.6 272.2 32.5-448.2 74.6 1.2 397.7-378.7 108.5-402.4-144.7z"/>
	</a>
	<a href="./temp/F3.103.pdf?id=5">
		<path id="rd-path-5" fill-rule="evenodd" d="m1125.8 954.9l-2.7-105.5-19.9-3.9-0.8-57.3 18.2-1.5-2.6-74.2-19.9-3.6-0.5-19 19-2.7-0.7-37.9 446.2-44.6 231.4 26.8 0.7 80-198.4 26.6 8.2 301-503.8 107-332.7-119.6z"/>
	</a>
	<a href="./temp/F3.103.pdf?id=6">
		<path id="rd-path-6" fill-rule="evenodd" d="m952.7 902.8l-3.5-93.5-21.7-4.1-1.6-53.7 20.9-2-2.4-68.5-22.5-3.5-0.8-17.8 21.6-3-0.8-33.9 442.6-37.2 177.6 19.1-446.2 44.6 0.7 37.9-19 2.7 0.5 19 19.9 3.6 2.6 74.2-18.2 1.5 0.8 57.3 19.9 3.9 2.7 105.5-358.3 71.6-168.1-60.5z"/>
	</a>
	<a href="./temp/F3.103.pdf?id=7">
		<path id="rd-path-7" fill-rule="evenodd" d="m801.9 862.2l-2.3-87.2-24.9-5.9-1.4-50.1 23.1-1.8-2.6-63.1-24.7-3.8-1.8-17.4 24.8-2.1-1.2-33.2 429.2-32.2 164.4 20.2-442.6 37.2 0.8 33.9-21.6 3 0.8 17.8 22.5 3.5 2.4 68.5-20.9 2 1.6 53.7 21.7 4.1 3.5 93.5-353.3 63.2-138.9-49.9z"/>
	</a>
	<a href="./temp/F3.103.pdf?id=8">
		<path id="rd-path-8" fill-rule="evenodd" d="m671 821.3l-3.6-77-25.7-6.1-1.1-46.4 23.1-2.2-2.5-59.2-25.4-4.1-2.4-15.2 26.3-3.1-1.5-28.4 421.9-30.3 140 16.1-429.2 32.2 1.2 33.2-24.8 2.1 1.8 17.4 24.7 3.8 2.6 63.1-23.1 1.8 1.4 50.1 24.9 5.9 2.3 87.2-341.4 53.9-167.7-60.3z"/>
	</a>
	<a href="">
		<path id="rd-path-9" fill-rule="evenodd" d="m557.1 774l-3.5-57.6-29.7-5.9-1.4-44.2 27.8-1.8-3.1-54.3-29-4.6-2.7-15 30.8-3.1-1.8-27.2 392.1-25.3 143.5 14.3-421.9 30.3 1.5 28.4-26.3 3.1 2.4 15.2 25.4 4.1 2.5 59.2-23.1 2.2 1.1 46.4 25.7 6.1 3.6 77-378.2 34.5-115.6-41.6z"/>
	</a>
</svg>