<svg width="190" height="44" viewBox="0 0 190 44" fill="none" xmlns="http://www.w3.org/2000/svg">
<rect width="190" height="44" fill="#D0D0D0"/>
<g clip-path="url(#clip0_7574_480)">
<rect width="252" height="368" transform="translate(-32 -101)" fill="white"/>
<path d="M79.463 19V4.845H85.429C86.3157 4.845 87.082 5.00333 87.728 5.32C88.374 5.624 88.868 6.06733 89.21 6.65C89.552 7.22 89.723 7.89767 89.723 8.683C89.723 9.367 89.5457 9.994 89.191 10.564C88.849 11.1213 88.3107 11.5647 87.576 11.894V10.944C88.222 11.1973 88.7477 11.5203 89.153 11.913C89.5583 12.293 89.8497 12.7237 90.027 13.205C90.217 13.6863 90.312 14.193 90.312 14.725C90.312 16.055 89.875 17.1 89.001 17.86C88.1397 18.62 86.9553 19 85.448 19H79.463ZM81.705 17.005H85.619C86.3663 17.005 86.9617 16.8023 87.405 16.397C87.8483 15.979 88.07 15.428 88.07 14.744C88.07 14.0473 87.8483 13.4963 87.405 13.091C86.9617 12.673 86.3663 12.464 85.619 12.464H81.705V17.005ZM81.705 10.488H85.486C86.094 10.488 86.5817 10.317 86.949 9.975C87.3163 9.62033 87.5 9.158 87.5 8.588C87.5 8.018 87.3163 7.57467 86.949 7.258C86.5817 6.94133 86.094 6.783 85.486 6.783H81.705V10.488ZM92.6943 19L97.6723 4.845H100.446L105.424 19H103.03L101.947 15.827H96.1903L95.0883 19H92.6943ZM96.8363 13.832H101.263L98.7553 6.422H99.3823L96.8363 13.832ZM108.434 19V4.845H113.583C114.533 4.845 115.369 5.02233 116.091 5.377C116.813 5.719 117.376 6.22567 117.782 6.897C118.2 7.55567 118.409 8.34733 118.409 9.272C118.409 10.2473 118.162 11.0833 117.668 11.78C117.186 12.4767 116.534 12.9833 115.711 13.3L118.979 19H116.433L112.956 12.825L114.419 13.68H110.676V19H108.434ZM110.676 11.685H113.621C114.14 11.685 114.59 11.5837 114.97 11.381C115.35 11.1783 115.641 10.8997 115.844 10.545C116.059 10.1777 116.167 9.747 116.167 9.253C116.167 8.759 116.059 8.33467 115.844 7.98C115.641 7.61267 115.35 7.334 114.97 7.144C114.59 6.94133 114.14 6.84 113.621 6.84H110.676V11.685ZM120.941 19L125.919 4.845H128.693L133.671 19H131.277L130.194 15.827H124.437L123.335 19H120.941ZM125.083 13.832H129.51L127.002 6.422H127.629L125.083 13.832ZM126.242 2.964L127.629 -0.171001H130.441L128.37 2.964H126.242ZM136.68 19V4.845H138.922V12.521L138.333 12.293L144.736 4.845H147.529L141.867 11.476L141.981 9.88L147.757 19H145.116L140.974 12.521L138.922 14.915V19H136.68ZM154.349 19V12.616L149.504 4.845H152.031L155.907 11.134H155.014L158.871 4.845H161.398L156.572 12.616V19H154.349ZM79.463 41V26.845H84.612C85.562 26.845 86.398 27.0223 87.12 27.377C87.8547 27.719 88.4247 28.2257 88.83 28.897C89.2353 29.5557 89.438 30.3473 89.438 31.272C89.438 32.184 89.229 32.9693 88.811 33.628C88.4057 34.2867 87.842 34.7933 87.12 35.148C86.398 35.5027 85.562 35.68 84.612 35.68H81.705V41H79.463ZM81.705 33.685H84.669C85.1757 33.685 85.619 33.5837 85.999 33.381C86.379 33.1783 86.6767 32.8997 86.892 32.545C87.1073 32.1777 87.215 31.747 87.215 31.253C87.215 30.759 87.1073 30.3347 86.892 29.98C86.6767 29.6127 86.379 29.334 85.999 29.144C85.619 28.9413 85.1757 28.84 84.669 28.84H81.705V33.685ZM93.0762 41V26.845H95.3182V41H93.0762ZM102.091 41V28.84H98.329V26.845H108.019V28.84H104.314V41H102.091ZM111.025 41V26.845H113.267V34.521L112.678 34.293L119.081 26.845H121.874L116.212 33.476L116.326 31.88L122.102 41H119.461L115.319 34.521L113.267 36.915V41H111.025ZM131.405 41.228C130.379 41.228 129.423 41.0443 128.536 40.677C127.662 40.3097 126.889 39.7967 126.218 39.138C125.559 38.4793 125.04 37.7067 124.66 36.82C124.293 35.9333 124.109 34.9643 124.109 33.913C124.109 32.8617 124.293 31.8927 124.66 31.006C125.04 30.1067 125.559 29.334 126.218 28.688C126.877 28.0293 127.649 27.5227 128.536 27.168C129.423 26.8007 130.379 26.617 131.405 26.617C132.444 26.617 133.4 26.8007 134.274 27.168C135.161 27.5227 135.933 28.0293 136.592 28.688C137.263 29.3467 137.783 30.1193 138.15 31.006C138.517 31.8927 138.701 32.8617 138.701 33.913C138.701 34.9643 138.511 35.9333 138.131 36.82C137.764 37.7067 137.251 38.4793 136.592 39.138C135.933 39.7967 135.161 40.3097 134.274 40.677C133.387 41.0443 132.431 41.228 131.405 41.228ZM131.405 39.176C132.14 39.176 132.811 39.043 133.419 38.777C134.04 38.511 134.578 38.1437 135.034 37.675C135.49 37.1937 135.845 36.6363 136.098 36.003C136.351 35.357 136.478 34.6603 136.478 33.913C136.478 33.1657 136.351 32.4753 136.098 31.842C135.845 31.2087 135.49 30.6513 135.034 30.17C134.578 29.6887 134.04 29.315 133.419 29.049C132.811 28.783 132.14 28.65 131.405 28.65C130.67 28.65 129.993 28.783 129.372 29.049C128.764 29.315 128.232 29.6887 127.776 30.17C127.32 30.6513 126.965 31.2087 126.712 31.842C126.471 32.4753 126.351 33.1657 126.351 33.913C126.351 34.6603 126.471 35.357 126.712 36.003C126.965 36.6363 127.32 37.1937 127.776 37.675C128.232 38.1437 128.77 38.511 129.391 38.777C130.012 39.043 130.683 39.176 131.405 39.176ZM145.929 41L140.913 26.845H143.326L147.43 38.929H146.955L151.04 26.845H153.453L148.437 41H145.929ZM156.448 41V26.845H158.69V41H156.448ZM169.548 41.228C168.547 41.228 167.616 41.0443 166.755 40.677C165.906 40.3097 165.165 39.803 164.532 39.157C163.911 38.4983 163.423 37.7257 163.069 36.839C162.714 35.9523 162.537 34.977 162.537 33.913C162.537 32.8617 162.708 31.8927 163.05 31.006C163.404 30.1067 163.898 29.334 164.532 28.688C165.165 28.0293 165.906 27.5227 166.755 27.168C167.603 26.8007 168.534 26.617 169.548 26.617C170.548 26.617 171.441 26.788 172.227 27.13C173.025 27.472 173.696 27.9217 174.241 28.479C174.785 29.0237 175.178 29.619 175.419 30.265L173.405 31.215C173.101 30.455 172.613 29.8407 171.942 29.372C171.283 28.8907 170.485 28.65 169.548 28.65C168.61 28.65 167.781 28.8717 167.059 29.315C166.337 29.7583 165.773 30.3727 165.368 31.158C164.975 31.9433 164.779 32.8617 164.779 33.913C164.779 34.9643 164.975 35.889 165.368 36.687C165.773 37.4723 166.337 38.0867 167.059 38.53C167.781 38.9607 168.61 39.176 169.548 39.176C170.485 39.176 171.283 38.9417 171.942 38.473C172.613 38.0043 173.101 37.39 173.405 36.63L175.419 37.58C175.178 38.2133 174.785 38.8087 174.241 39.366C173.696 39.9233 173.025 40.373 172.227 40.715C171.441 41.057 170.548 41.228 169.548 41.228ZM179.054 41V26.845H188.383V28.84H181.296V32.906H188.003V34.901H181.296V39.005H188.383V41H179.054Z" fill="black"/>
<path d="M37.6763 3.07275L29.9993 7.64824L32.2382 9.00357L37.6763 5.76302L55.5931 16.4375V38.8003H41.1723V41.0728H57.9993V15.1789L37.6763 3.07275Z" fill="black"/>
<path d="M18.9993 3.07275L-0.000732422 15.1789V41.0728H15.7309V38.8003H2.2488V16.4375L18.9993 5.76302L35.7497 16.4375V38.8003H21.0874V16.4375L26.2069 13.1765L24.1086 11.8263L18.8379 15.184V41.0728H37.9993V15.1789L18.9993 3.07275Z" fill="black"/>
</g>
<defs>
<clipPath id="clip0_7574_480">
<rect width="252" height="368" fill="white" transform="translate(-32 -101)"/>
</clipPath>
</defs>
</svg>
