<svg version="1.2" xmlns="http://www.w3.org/2000/svg" viewBox="0 0 1935 410">
	<g id="house" fill="var(--color-secondary, #d0b78e)">
		<path id="house-2" d="m376.8 0.7l-76.8 45.8 22.4 13.5 54.4-32.4 179.1 106.8v223.6h-144.2v22.7h168.3v-258.9z"/>
		<path id="house-1" d="m190 0.7l-190 121.1v258.9h157.3v-22.7h-134.8v-223.6l167.5-106.8 167.5 106.8v223.6h-146.6v-223.6l51.2-32.6-21-13.5-52.7 33.5v258.9h191.6v-258.9z"/>
	</g>
	<g id="text" fill="currentColor">
		<path id="text-2" aria-label="Pitkovice"  d="m825.8 380h-30v-163.9h61.2q16.7 0 29.5 6.2 13 5.9 20.2 17.6 7.3 11.4 7.3 27.9 0 16.3-7.5 27.9-7.3 11.5-20 17.6-12.8 6.2-29.5 6.2h-31.2zm0-137.5v50.6h31.6q8.2 0 14.1-3.1 6-3.3 9.3-9 3.3-5.7 3.3-13.2 0-7.7-3.3-13.2-3.3-5.7-9.3-8.8-5.9-3.3-14.1-3.3zm143.5 137.5h-28.8v-119.7h28.8zm0-133.1h-28.8v-30.8h28.8zm85.8 134.4q-20.3 0-31.5-11-11-11.2-11-31.4v-52.8h-20.7v-25.8h2.2q8.8 0 13.7-4.6 4.8-4.6 4.8-13.4v-9.2h28.8v27.2h27.5v25.8h-27.5v51.2q0 6 2 10.2 2.2 4.1 6.6 6.3 4.6 2.2 11.7 2.2 1.5 0 3.5-0.2 2.2-0.2 4.2-0.4v24.6q-3.1 0.5-7.1 0.9-3.9 0.4-7.2 0.4zm69.2-1.3h-28.8v-166.5h28.8v109.1l-11-3.3 56.3-59h35.9l-44.2 48.2 45.1 71.5h-33l-39.2-62 17.2-3.5-36.1 38.7 9-17.6zm158.7 2.6q-17.6 0-32.1-8.1-14.3-8.2-22.9-22.2-8.3-14.1-8.3-32.2 0-18 8.3-32.1 8.6-14.1 22.9-22.2 14.3-8.1 32.1-8.1 17.6 0 31.9 8.1 14.3 8.1 22.7 22.2 8.6 13.9 8.6 32.1 0 18.1-8.6 32.2-8.6 14-22.9 22.2-14.3 8.1-31.7 8.1zm0-26.4q9.7 0 17-4.6 7.4-4.6 11.6-12.8 4.4-8.3 4.4-18.7 0-10.5-4.4-18.4-4.2-8.2-11.6-12.8-7.3-4.8-17-4.8-9.9 0-17.4 4.8-7.4 4.6-11.8 12.8-4.2 7.9-4.2 18.4 0 10.4 4.2 18.7 4.4 8.2 11.8 12.8 7.5 4.6 17.4 4.6zm149.1 23.8h-25.5l-47.1-119.7h31.5l34.1 94.2h-11.7l34.3-94.2h31.5zm96.2 0h-28.8v-119.7h28.8zm0-133.1h-28.8v-30.8h28.8zm88.8 135.8q-17.8 0-32.1-8.2-14.1-8.3-22.2-22.4-8.2-14.3-8.2-32.1 0-17.9 8.2-31.9 8.1-14.1 22.2-22.3 14.3-8.1 32.1-8.1 12.8 0 23.8 4.6 11 4.4 18.9 12.3 8.1 7.7 11.7 18.5l-25.3 11q-3.3-9-11.3-14.5-7.7-5.5-17.8-5.5-9.4 0-16.9 4.6-7.3 4.6-11.5 12.8-4.1 8.1-4.1 18.7 0 10.5 4.1 18.7 4.2 8.1 11.5 12.7 7.5 4.7 16.9 4.7 10.4 0 18.1-5.5 7.7-5.5 11-14.8l25.3 11.5q-3.6 10.1-11.5 18.2-7.9 7.9-18.9 12.6-11 4.4-24 4.4zm137.1 0q-18.4 0-32.3-8.4-13.9-8.4-21.6-22.7-7.7-14.3-7.7-31.6 0-18.1 7.7-31.9 8-14.1 21.4-22.3 13.6-8.1 30.3-8.1 14.1 0 24.7 4.6 10.8 4.6 18.2 12.8 7.5 8.1 11.5 18.7 3.9 10.3 3.9 22.4 0 3.1-0.4 6.4-0.2 3.3-1.1 5.7h-92.4v-22h76.1l-13.6 10.4q2-10.2-1.1-18.1-2.9-7.9-9.7-12.5-6.6-4.6-16.1-4.6-9 0-16 4.6-7.1 4.4-10.8 13.2-3.5 8.6-2.6 20.9-0.9 11 2.8 19.6 4 8.3 11.5 12.9 7.7 4.7 17.6 4.7 9.9 0 16.7-4.2 7-4.2 11-11.2l23.3 11.4q-3.5 8.6-11 15.2-7.5 6.6-17.8 10.3-10.1 3.8-22.5 3.8z"/>
		<path id="text-1" aria-label="Rodinné domy"  d="m813.3 150h-21.8v-119.2h44.3q12.2 0 21.5 4.5 9.4 4.3 14.7 12.8 5.3 8.3 5.3 20.3 0 12.3-5.9 21-5.8 8.6-15.7 12.8l27.3 47.8h-24.6l-29.3-52.3 14.1 8.3h-29.9zm0-100v36.8h22.9q5.9 0 10.2-2.2 4.3-2.4 6.7-6.6 2.4-4.2 2.4-9.6 0-5.6-2.4-9.6-2.4-4.2-6.7-6.4-4.3-2.4-10.2-2.4zm123 101.9q-12.8 0-23.4-5.9-10.4-5.9-16.6-16.2-6.1-10.2-6.1-23.3 0-13.1 6.1-23.4 6.2-10.2 16.6-16.1 10.4-6 23.4-6 12.8 0 23.2 6 10.4 5.9 16.5 16.1 6.2 10.1 6.2 23.4 0 13.1-6.2 23.3-6.3 10.3-16.7 16.2-10.4 5.9-23 5.9zm0-19.2q7 0 12.3-3.3 5.5-3.4 8.5-9.3 3.2-6.1 3.2-13.6 0-7.7-3.2-13.5-3-5.9-8.5-9.2-5.3-3.6-12.3-3.6-7.2 0-12.6 3.6-5.5 3.3-8.7 9.2-3 5.8-3 13.5 0 7.5 3 13.6 3.2 5.9 8.7 9.3 5.4 3.3 12.6 3.3zm105.9 19.2q-12.6 0-22.5-5.9-10-6.1-15.7-16.5-5.8-10.4-5.8-23 0-12.8 5.8-23.1 5.7-10.2 15.7-16.3 10-6.1 22.4-6.1 9.9 0 17.6 4 7.8 3.9 12.3 10.9l-3.2 4.3v-51.3h20.9v121.1h-19.8v-16.8l2.2 4.2q-4.4 7-12.4 10.8-8 3.7-17.5 3.7zm2.3-19.2q7.2 0 12.6-3.3 5.4-3.4 8.5-9.3 3.2-5.9 3.2-13.6 0-7.5-3.2-13.5-3.1-6-8.5-9.4-5.4-3.4-12.6-3.4-7.1 0-12.7 3.6-5.6 3.3-8.8 9.2-3 5.8-3 13.5 0 7.7 3 13.6 3.2 5.9 8.8 9.3 5.6 3.3 12.7 3.3zm88.2 17.3h-21v-87h21zm0-96.8h-21v-22.4h21zm44 96.8h-21v-87.1h19.7v17.1l-1.6-3q3.1-7.8 9.9-11.8 7.1-4.2 16.4-4.2 9.6 0 16.9 4.2 7.5 4.1 11.7 11.6 4.2 7.4 4.2 17.2v56h-21v-51.1q0-5.7-2.2-9.9-2.3-4.2-6.3-6.4-3.8-2.4-9.1-2.4-5.1 0-9.1 2.4-4 2.2-6.3 6.4-2.2 4.2-2.2 9.9zm98 0h-21v-87h19.7v17.1l-1.6-3q3.1-7.9 9.9-11.9 7.1-4.1 16.4-4.1 9.6 0 16.9 4.1 7.5 4.2 11.7 11.7 4.2 7.4 4.2 17.1v56h-21v-51q0-5.8-2.2-9.9-2.3-4.2-6.3-6.4-3.8-2.4-9.1-2.4-5.1 0-9.1 2.4-4 2.2-6.3 6.4-2.2 4.1-2.2 9.9zm118.3 1.9q-13.4 0-23.5-6.1-10.1-6.1-15.7-16.5-5.6-10.4-5.6-23 0-13.1 5.6-23.2 5.8-10.2 15.5-16.2 10-5.9 22.1-5.9 10.3 0 17.9 3.4 7.9 3.3 13.3 9.3 5.5 5.9 8.3 13.6 2.9 7.5 2.9 16.3 0 2.2-0.3 4.6-0.2 2.4-0.8 4.2h-67.2v-16h55.4l-10 7.5q1.5-7.4-0.8-13.1-2-5.8-7-9.1-4.8-3.4-11.7-3.4-6.5 0-11.7 3.4-5.1 3.2-7.8 9.6-2.6 6.2-1.9 15.2-0.7 8 2.1 14.2 2.8 6.1 8.3 9.4 5.6 3.4 12.8 3.4 7.2 0 12.1-3 5.2-3.1 8-8.2l17 8.3q-2.6 6.3-8 11.1-5.4 4.8-13 7.5-7.3 2.7-16.3 2.7zm8.3-104.3h-20.6l10.4-27.7h27.2zm123.9 104.3q-12.7 0-22.6-5.9-9.9-6.1-15.7-16.5-5.7-10.4-5.7-23 0-12.8 5.7-23.1 5.8-10.2 15.7-16.3 10.1-6.1 22.4-6.1 9.9 0 17.6 4 7.9 3.9 12.3 10.9l-3.2 4.3v-51.3h21v121.1h-19.8v-16.8l2.2 4.2q-4.5 7-12.5 10.8-8 3.7-17.4 3.7zm2.2-19.2q7.2 0 12.7-3.3 5.4-3.4 8.4-9.3 3.2-5.9 3.2-13.6 0-7.5-3.2-13.5-3-6-8.4-9.4-5.5-3.4-12.7-3.4-7 0-12.6 3.6-5.6 3.3-8.8 9.2-3.1 5.8-3.1 13.5 0 7.7 3.1 13.6 3.2 5.9 8.8 9.3 5.6 3.3 12.6 3.3zm110.9 19.2q-12.8 0-23.4-5.9-10.4-5.9-16.6-16.2-6.1-10.2-6.1-23.3 0-13.1 6.1-23.4 6.2-10.2 16.6-16.1 10.4-6 23.4-6 12.8 0 23.2 6 10.4 5.9 16.4 16.1 6.3 10.1 6.3 23.4 0 13.1-6.3 23.3-6.2 10.3-16.6 16.2-10.4 5.9-23 5.9zm0-19.2q7 0 12.3-3.3 5.4-3.4 8.5-9.3 3.2-6.1 3.2-13.6 0-7.7-3.2-13.5-3.1-5.9-8.5-9.2-5.3-3.6-12.3-3.6-7.2 0-12.7 3.6-5.4 3.3-8.6 9.2-3.1 5.8-3.1 13.5 0 7.5 3.1 13.6 3.2 5.9 8.6 9.3 5.5 3.3 12.7 3.3zm85.4 17.3h-21v-87h19.7v20.1l-2.3-3.3q2.4-9.5 9.6-14.1 7.2-4.7 17-4.7 10.7 0 18.9 5.6 8.1 5.6 10.5 14.8l-5.9 0.4q4-10.4 12-15.5 8-5.3 18.4-5.3 9.3 0 16.5 4.2 7.4 4.2 11.5 11.7 4.2 7.3 4.2 17.1v56h-21v-51q0-5.8-2.1-10-2-4.1-5.7-6.4-3.7-2.4-9-2.4-4.9 0-8.8 2.4-3.8 2.3-5.9 6.4-2.1 4.2-2.1 10v51h-20.9v-51q0-5.8-2.1-10-2.1-4.1-5.9-6.4-3.7-2.4-8.8-2.4-5 0-8.8 2.4-3.9 2.3-6 6.4-2 4.2-2 10zm139.6 35.3q-3.6 0-6.9-0.5-3.4-0.6-6.1-1.9v-17.6q2.1 0.5 5 1 3 0.5 5.6 0.5 7.2 0 10.4-3.4 3.3-3.4 5.9-8.8l5.7-13.4-0.3 17.6-37.9-95.9h22.6l26.5 70.7h-8l26.4-70.7h22.7l-37.9 95.9q-3.3 8.4-8.1 14.4-4.8 5.9-11.2 9.1-6.3 3-14.4 3z"/>
	</g>
</svg>